<svg xmlns="http://www.w3.org/2000/svg" width="256" height="256" viewBox="0 0 100 100"><rect width="100" height="100" rx="20" fill="#362e73"></rect><path d="M25.74 49.61L16.48 21.17L7.54 21.17L7.54 78.05L14.57 78.05L14.57 55.35L13.98 32.42L23.63 62.23L27.77 62.23L38.28 31.60L37.70 55.35L37.70 78.05L44.73 78.05L44.73 21.17L35.74 21.17L25.74 49.61ZM75.23 78.83L75.23 78.83Q81.41 78.83 85.61 76.35Q89.80 73.87 91.91 70.66L91.91 70.66L87.50 67.23Q85.51 69.80 82.50 71.37Q79.49 72.93 75.63 72.93L75.63 72.93Q72.70 72.93 70.27 71.84Q67.85 70.74 66.13 68.83L66.13 68.83Q64.45 67.03 63.50 64.69Q62.54 62.34 62.27 59.26L62.27 59.26L62.27 58.98L92.46 58.98L92.46 55.74Q92.46 51.33 91.35 47.54Q90.23 43.75 87.97 40.94L87.97 40.94Q85.70 38.16 82.29 36.58Q78.87 35 74.30 35L74.30 35Q70.66 35 67.21 36.48Q63.75 37.97 61.05 40.74L61.05 40.74Q58.32 43.55 56.68 47.60Q55.04 51.64 55.04 56.76L55.04 56.76L55.04 58.40Q55.04 62.81 56.52 66.56Q58.01 70.31 60.66 73.05L60.66 73.05Q63.32 75.78 67.05 77.30Q70.78 78.83 75.23 78.83ZM74.30 40.94L74.30 40.94Q77.07 40.94 79.08 41.95Q81.09 42.97 82.42 44.61L82.42 44.61Q83.75 46.25 84.49 48.50Q85.23 50.74 85.23 52.70L85.23 52.70L85.23 53.05L62.50 53.05Q62.93 50.12 64.00 47.87Q65.08 45.63 66.64 44.06L66.64 44.06Q68.20 42.54 70.16 41.74Q72.11 40.94 74.30 40.94Z" fill="#fff"></path></svg>